Oswald-Bold.ufo
<glyph name="exclam" format="1">
  <advance width="524"/>
  <unicode hex="0021"/>
  <outline>
    <contour>
      <point x="95" y="0" type="line"/>
      <point x="95" y="317" type="line"/>
      <point x="418" y="317" type="line"/>
      <point x="418" y="0" type="line"/>
    </contour>
    <contour>
      <point x="199" y="462" type="line"/>
      <point x="95" y="1800" type="line"/>
      <point x="438" y="1800" type="line"/>
      <point x="315" y="462" type="line"/>
    </contour>
  </outline>
</glyph>
<glyph name="percent" format="1">
  <advance width="2041"/>
  <unicode hex="0025"/>
  <outline>
    <contour>
      <point x="634" y="0" type="line"/>
      <point x="1211" y="1835" type="line"/>
      <point x="1391" y="1835" type="line"/>
      <point x="813" y="0" type="line"/>
    </contour>
    <contour>
      <point x="1436" y="517" type="curve" smooth="yes"/>
      <point x="1436" y="511" type="line" smooth="yes"/>
      <point x="1436" y="339"/>
      <point x="1447" y="208"/>
      <point x="1555" y="208" type="curve" smooth="yes"/>
      <point x="1663" y="208"/>
      <point x="1673" y="339"/>
      <point x="1673" y="511" type="curve" smooth="yes"/>
      <point x="1673" y="516" type="line" smooth="yes"/>
      <point x="1673" y="689"/>
      <point x="1667" y="807"/>
      <point x="1555" y="807" type="curve" smooth="yes"/>
      <point x="1444" y="807"/>
      <point x="1436" y="690"/>
    </contour>
    <contour>
      <point x="1170" y="511" type="curve" smooth="yes"/>
      <point x="1170" y="520" type="line"/>
      <point x="1172" y="821"/>
      <point x="1267" y="1016"/>
      <point x="1555" y="1016" type="curve" smooth="yes"/>
      <point x="1842" y="1016"/>
      <point x="1940" y="822"/>
      <point x="1942" y="520" type="curve"/>
      <point x="1942" y="511" type="line" smooth="yes"/>
      <point x="1942" y="214"/>
      <point x="1841" y="0"/>
      <point x="1555" y="0" type="curve" smooth="yes"/>
      <point x="1268" y="0"/>
      <point x="1170" y="214"/>
    </contour>
    <contour>
      <point x="360" y="1306" type="curve" smooth="yes"/>
      <point x="360" y="1295" type="line" smooth="yes"/>
      <point x="360" y="1123"/>
      <point x="371" y="992"/>
      <point x="479" y="992" type="curve" smooth="yes"/>
      <point x="587" y="992"/>
      <point x="597" y="1123"/>
      <point x="597" y="1295" type="curve" smooth="yes"/>
      <point x="597" y="1304" type="line" smooth="yes"/>
      <point x="597" y="1475"/>
      <point x="590" y="1591"/>
      <point x="479" y="1591" type="curve" smooth="yes"/>
      <point x="369" y="1591"/>
      <point x="360" y="1476"/>
    </contour>
    <contour>
      <point x="94" y="1295" type="curve" smooth="yes"/>
      <point x="94" y="1301" type="line"/>
      <point x="95" y="1604"/>
      <point x="190" y="1800"/>
      <point x="479" y="1800" type="curve" smooth="yes"/>
      <point x="766" y="1800"/>
      <point x="864" y="1605"/>
      <point x="866" y="1303" type="curve"/>
      <point x="866" y="1295" type="line" smooth="yes"/>
      <point x="866" y="998"/>
      <point x="765" y="784"/>
      <point x="479" y="784" type="curve" smooth="yes"/>
      <point x="192" y="784"/>
      <point x="94" y="998"/>
    </contour>
  </outline>
</glyph>
<glyph name="ampersand" format="1">
  <advance width="1194"/>
  <unicode hex="0026"/>
  <outline>
    <contour>
      <point x="606" y="313" type="curve"/>
      <point x="542" y="416"/>
      <point x="478" y="520"/>
      <point x="424" y="628" type="curve"/>
      <point x="398" y="603"/>
      <point x="378" y="507"/>
      <point x="378" y="414" type="curve" smooth="yes"/>
      <point x="378" y="316"/>
      <point x="401" y="221"/>
      <point x="464" y="221" type="curve" smooth="yes"/>
      <point x="525" y="221"/>
      <point x="571" y="268"/>
    </contour>
    <contour>
      <point x="507" y="1105" type="curve"/>
      <point x="570" y="1196"/>
      <point x="619" y="1324"/>
      <point x="619" y="1436" type="curve" smooth="yes"/>
      <point x="619" y="1498"/>
      <point x="599" y="1583"/>
      <point x="522" y="1583" type="curve" smooth="yes"/>
      <point x="446" y="1583"/>
      <point x="436" y="1490"/>
      <point x="436" y="1433" type="curve" smooth="yes"/>
      <point x="436" y="1329"/>
      <point x="468" y="1200"/>
    </contour>
    <contour>
      <point x="1129" y="262" type="curve"/>
      <point x="1129" y="-23" type="line"/>
      <point x="1109" y="-27"/>
      <point x="1089" y="-29"/>
      <point x="1069" y="-29" type="curve" smooth="yes"/>
      <point x="965" y="-29"/>
      <point x="866" y="53"/>
      <point x="795" y="121" type="curve"/>
      <point x="708" y="23"/>
      <point x="586" y="-30"/>
      <point x="456" y="-30" type="curve" smooth="yes"/>
      <point x="206" y="-30"/>
      <point x="66" y="155"/>
      <point x="66" y="389" type="curve" smooth="yes"/>
      <point x="66" y="592"/>
      <point x="160" y="757"/>
      <point x="294" y="906" type="curve"/>
      <point x="234" y="1039"/>
      <point x="134" y="1284"/>
      <point x="134" y="1434" type="curve" smooth="yes"/>
      <point x="134" y="1655"/>
      <point x="265" y="1834"/>
      <point x="500" y="1834" type="curve" smooth="yes"/>
      <point x="732" y="1834"/>
      <point x="895" y="1687"/>
      <point x="895" y="1451" type="curve" smooth="yes"/>
      <point x="895" y="1217"/>
      <point x="773" y="1038"/>
      <point x="615" y="876" type="curve"/>
      <point x="802" y="564" type="line"/>
      <point x="838" y="658"/>
      <point x="843" y="774"/>
      <point x="843" y="874" type="curve"/>
      <point x="1119" y="874" type="line"/>
      <point x="1119" y="622"/>
      <point x="1074" y="496"/>
      <point x="969" y="342" type="curve"/>
      <point x="1008" y="297"/>
      <point x="1070" y="267"/>
    </contour>
  </outline>
</glyph>
<glyph name="five" format="1">
  <advance width="1115"/>
  <unicode hex="0035"/>
  <outline>
    <contour>
      <point x="95" y="571" type="curve"/>
      <point x="441" y="571" type="line"/>
      <point x="439" y="401"/>
      <point x="445" y="260"/>
      <point x="553" y="260" type="curve" smooth="yes"/>
      <point x="724" y="260"/>
      <point x="709" y="526"/>
      <point x="709" y="645" type="curve" smooth="yes"/>
      <point x="709" y="738"/>
      <point x="703" y="907"/>
      <point x="574" y="907" type="curve" smooth="yes"/>
      <point x="501" y="907"/>
      <point x="451" y="826"/>
      <point x="428" y="767" type="curve"/>
      <point x="133" y="767" type="line"/>
      <point x="133" y="1801" type="line"/>
      <point x="990" y="1801" type="line"/>
      <point x="990" y="1459" type="line"/>
      <point x="457" y="1459" type="line"/>
      <point x="457" y="1134" type="line"/>
      <point x="514" y="1169"/>
      <point x="566" y="1193"/>
      <point x="632" y="1193" type="curve" smooth="yes"/>
      <point x="964" y="1193"/>
      <point x="1049" y="922"/>
      <point x="1049" y="640" type="curve" smooth="yes"/>
      <point x="1049" y="309"/>
      <point x="971" y="-35"/>
      <point x="569" y="-35" type="curve" smooth="yes"/>
      <point x="189" y="-35"/>
      <point x="95" y="242"/>
    </contour>
  </outline>
</glyph>
<glyph name="question" format="1">
  <advance width="974"/>
  <unicode hex="003F"/>
  <outline>
    <contour>
      <point x="259" y="0" type="line"/>
      <point x="259" y="324" type="line"/>
      <point x="593" y="324" type="line"/>
      <point x="593" y="0" type="line"/>
    </contour>
    <contour>
      <point x="259" y="480" type="line"/>
      <point x="259" y="868" type="line"/>
      <point x="426" y="982"/>
      <point x="609" y="1181"/>
      <point x="609" y="1402" type="curve" smooth="yes"/>
      <point x="609" y="1494"/>
      <point x="564" y="1541"/>
      <point x="483" y="1541" type="curve" smooth="yes"/>
      <point x="404" y="1541"/>
      <point x="370" y="1466"/>
      <point x="370" y="1382" type="curve" smooth="yes"/>
      <point x="370" y="1342"/>
      <point x="377" y="1297"/>
      <point x="389" y="1258" type="curve"/>
      <point x="75" y="1198" type="line"/>
      <point x="56" y="1271"/>
      <point x="46" y="1342"/>
      <point x="46" y="1408" type="curve" smooth="yes"/>
      <point x="46" y="1650"/>
      <point x="177" y="1835"/>
      <point x="483" y="1835" type="curve" smooth="yes"/>
      <point x="777" y="1835"/>
      <point x="946" y="1673"/>
      <point x="946" y="1382" type="curve" smooth="yes"/>
      <point x="946" y="1125"/>
      <point x="816" y="889"/>
      <point x="593" y="760" type="curve"/>
      <point x="593" y="480" type="line"/>
    </contour>
  </outline>
</glyph>
<glyph name="F" format="1">
  <advance width="856"/>
  <unicode hex="0046"/>
  <outline>
    <contour>
      <point x="107" y="0" type="line"/>
      <point x="107" y="1800" type="line"/>
      <point x="858" y="1800" type="line"/>
      <point x="858" y="1550" type="line"/>
      <point x="471" y="1550" type="line"/>
      <point x="471" y="1060" type="line"/>
      <point x="745" y="1060" type="line"/>
      <point x="745" y="804" type="line"/>
      <point x="471" y="804" type="line"/>
      <point x="471" y="0" type="line"/>
    </contour>
  </outline>
</glyph>
<glyph name="G" format="1">
  <advance width="1238"/>
  <unicode hex="0047"/>
  <outline>
    <contour>
      <point x="84" y="563" type="curve" smooth="yes"/>
      <point x="84" y="1197" type="line" smooth="yes"/>
      <point x="84" y="1558"/>
      <point x="211" y="1835"/>
      <point x="615" y="1835" type="curve" smooth="yes"/>
      <point x="995" y="1835"/>
      <point x="1130" y="1582"/>
      <point x="1130" y="1235" type="curve" smooth="yes"/>
      <point x="1130" y="1129" type="line"/>
      <point x="782" y="1129" type="line"/>
      <point x="782" y="1255" type="line" smooth="yes"/>
      <point x="782" y="1387"/>
      <point x="768" y="1554"/>
      <point x="615" y="1554" type="curve" smooth="yes"/>
      <point x="473" y="1554"/>
      <point x="448" y="1406"/>
      <point x="448" y="1288" type="curve" smooth="yes"/>
      <point x="448" y="511" type="line" smooth="yes"/>
      <point x="448" y="392"/>
      <point x="472" y="246"/>
      <point x="615" y="246" type="curve" smooth="yes"/>
      <point x="758" y="246"/>
      <point x="781" y="404"/>
      <point x="781" y="521" type="curve" smooth="yes"/>
      <point x="781" y="665" type="line"/>
      <point x="575" y="665" type="line"/>
      <point x="575" y="926" type="line"/>
      <point x="1145" y="926" type="line"/>
      <point x="1145" y="0" type="line"/>
      <point x="895" y="0" type="line"/>
      <point x="849" y="126" type="line"/>
      <point x="788" y="30"/>
      <point x="662" y="-35"/>
      <point x="543" y="-35" type="curve" smooth="yes"/>
      <point x="206" y="-35"/>
      <point x="84" y="284"/>
    </contour>
  </outline>
</glyph>
<glyph name="J" format="1">
  <advance width="691"/>
  <unicode hex="004A"/>
  <outline>
    <contour>
      <point x="0" y="-34" type="line"/>
      <point x="0" y="222" type="line"/>
      <point x="174" y="220"/>
      <point x="220" y="256"/>
      <point x="220" y="435" type="curve" smooth="yes"/>
      <point x="220" y="1800" type="line"/>
      <point x="584" y="1800" type="line"/>
      <point x="584" y="432" type="line" smooth="yes"/>
      <point x="584" y="121"/>
      <point x="518" y="-34"/>
      <point x="179" y="-34" type="curve" smooth="yes"/>
    </contour>
  </outline>
</glyph>
<glyph name="Q" format="1">
  <advance width="1228"/>
  <unicode hex="0051"/>
  <outline>
    <contour>
      <point x="780" y="511" type="curve" smooth="yes"/>
      <point x="780" y="1288" type="line" smooth="yes"/>
      <point x="780" y="1404"/>
      <point x="754" y="1554"/>
      <point x="614" y="1554" type="curve" smooth="yes"/>
      <point x="475" y="1554"/>
      <point x="448" y="1403"/>
      <point x="448" y="1288" type="curve" smooth="yes"/>
      <point x="448" y="511" type="line" smooth="yes"/>
      <point x="448" y="395"/>
      <point x="474" y="246"/>
      <point x="614" y="246" type="curve" smooth="yes"/>
      <point x="756" y="246"/>
      <point x="780" y="393"/>
    </contour>
    <contour>
      <point x="84" y="592" type="curve" smooth="yes"/>
      <point x="84" y="1197" type="line" smooth="yes"/>
      <point x="84" y="1555"/>
      <point x="213" y="1835"/>
      <point x="614" y="1835" type="curve" smooth="yes"/>
      <point x="1015" y="1835"/>
      <point x="1144" y="1555"/>
      <point x="1144" y="1197" type="curve" smooth="yes"/>
      <point x="1144" y="601" type="line" smooth="yes"/>
      <point x="1144" y="400"/>
      <point x="1094" y="189"/>
      <point x="931" y="52" type="curve"/>
      <point x="962" y="-15"/>
      <point x="1091" y="-13"/>
      <point x="1107" y="-13" type="curve"/>
      <point x="1107" y="-234" type="line"/>
      <point x="863" y="-234"/>
      <point x="761" y="-117"/>
      <point x="707" y="-32" type="curve"/>
      <point x="673" y="-36"/>
      <point x="640" y="-37"/>
      <point x="608" y="-37" type="curve" smooth="yes"/>
      <point x="241" y="-37"/>
      <point x="84" y="227"/>
    </contour>
  </outline>
</glyph>
<glyph name="S" format="1">
  <advance width="1053"/>
  <unicode hex="0053"/>
  <outline>
    <contour>
      <point x="45" y="515" type="curve"/>
      <point x="414" y="586" type="line"/>
      <point x="414" y="428"/>
      <point x="427" y="242"/>
      <point x="553" y="242" type="curve" smooth="yes"/>
      <point x="639" y="242"/>
      <point x="661" y="304"/>
      <point x="661" y="380" type="curve" smooth="yes"/>
      <point x="661" y="530"/>
      <point x="553" y="664"/>
      <point x="448" y="756" type="curve"/>
      <point x="335" y="852" type="line" smooth="yes"/>
      <point x="193" y="972"/>
      <point x="46" y="1104"/>
      <point x="46" y="1363" type="curve" smooth="yes"/>
      <point x="46" y="1658"/>
      <point x="251" y="1837"/>
      <point x="554" y="1837" type="curve" smooth="yes"/>
      <point x="810" y="1837"/>
      <point x="1013" y="1628"/>
      <point x="1013" y="1373" type="curve" smooth="yes"/>
      <point x="1013" y="1367"/>
      <point x="1012" y="1359"/>
      <point x="1012" y="1330" type="curve"/>
      <point x="636" y="1278" type="line"/>
      <point x="636" y="1301"/>
      <point x="639" y="1323"/>
      <point x="639" y="1351" type="curve" smooth="yes"/>
      <point x="639" y="1436"/>
      <point x="620" y="1558"/>
      <point x="524" y="1558" type="curve" smooth="yes"/>
      <point x="438" y="1558"/>
      <point x="404" y="1476"/>
      <point x="404" y="1400" type="curve" smooth="yes"/>
      <point x="404" y="1203"/>
      <point x="579" y="1107"/>
      <point x="691" y="1005" type="curve"/>
      <point x="876" y="840"/>
      <point x="1015" y="671"/>
      <point x="1015" y="393" type="curve" smooth="yes"/>
      <point x="1015" y="135"/>
      <point x="803" y="-37"/>
      <point x="552" y="-37" type="curve" smooth="yes"/>
      <point x="207" y="-37"/>
      <point x="59" y="233"/>
    </contour>
  </outline>
</glyph>
<glyph name="Y" format="1">
  <advance width="1027"/>
  <unicode hex="0059"/>
  <outline>
    <contour>
      <point x="337" y="0" type="line"/>
      <point x="337" y="595" type="line"/>
      <point x="-1" y="1800" type="line"/>
      <point x="342" y="1800" type="line"/>
      <point x="510" y="1009" type="line"/>
      <point x="571" y="1269"/>
      <point x="634" y="1540"/>
      <point x="695" y="1800" type="curve"/>
      <point x="1028" y="1800" type="line"/>
      <point x="689" y="595" type="line"/>
      <point x="689" y="0" type="line"/>
    </contour>
  </outline>
</glyph>
<glyph name="s" format="1">
  <advance width="867"/>
  <unicode hex="0073"/>
  <outline>
    <contour>
      <point x="38" y="315" type="curve"/>
      <point x="296" y="407" type="line"/>
      <point x="318" y="340"/>
      <point x="357" y="218"/>
      <point x="441" y="218" type="curve" smooth="yes"/>
      <point x="491" y="218"/>
      <point x="504" y="250"/>
      <point x="504" y="292" type="curve" smooth="yes"/>
      <point x="504" y="384"/>
      <point x="409" y="463"/>
      <point x="304" y="553" type="curve" smooth="yes"/>
      <point x="249" y="600" type="line"/>
      <point x="132" y="702"/>
      <point x="20" y="821"/>
      <point x="20" y="983" type="curve" smooth="yes"/>
      <point x="20" y="1218"/>
      <point x="228" y="1334"/>
      <point x="442" y="1334" type="curve" smooth="yes"/>
      <point x="643" y="1334"/>
      <point x="793" y="1154"/>
      <point x="844" y="969" type="curve"/>
      <point x="602" y="886" type="line"/>
      <point x="574" y="958"/>
      <point x="523" y="1085"/>
      <point x="432" y="1085" type="curve" smooth="yes"/>
      <point x="382" y="1085"/>
      <point x="358" y="1042"/>
      <point x="358" y="1003" type="curve" smooth="yes"/>
      <point x="358" y="937"/>
      <point x="452" y="853"/>
      <point x="540" y="779" type="curve"/>
      <point x="602" y="724" type="line"/>
      <point x="717" y="620"/>
      <point x="837" y="490"/>
      <point x="837" y="335" type="curve" smooth="yes"/>
      <point x="837" y="120"/>
      <point x="663" y="-29"/>
      <point x="456" y="-29" type="curve" smooth="yes"/>
      <point x="246" y="-29"/>
      <point x="94" y="116"/>
    </contour>
  </outline>
</glyph>
<glyph name="v" format="1">
  <advance width="892"/>
  <unicode hex="0076"/>
  <outline>
    <contour>
      <point x="282" y="0" type="line"/>
      <point x="11" y="1305" type="line"/>
      <point x="327" y="1305" type="line"/>
      <point x="456" y="424" type="line"/>
      <point x="565" y="1305" type="line"/>
      <point x="881" y="1305" type="line"/>
      <point x="623" y="0" type="line"/>
    </contour>
  </outline>
</glyph>
<glyph name="periodcentered" format="1">
  <advance width="520"/>
  <unicode hex="00B7"/>
  <outline>
    <contour>
      <point x="99" y="679" type="line"/>
      <point x="99" y="994" type="line"/>
      <point x="422" y="994" type="line"/>
      <point x="422" y="679" type="line"/>
    </contour>
  </outline>
</glyph>
<glyph name="AE" format="1">
  <advance width="1609"/>
  <unicode hex="00C6"/>
  <outline>
    <contour>
      <point x="643" y="609" type="line"/>
      <point x="854" y="609" type="line"/>
      <point x="854" y="1183" type="line"/>
    </contour>
    <contour>
      <point x="44" y="0" type="line"/>
      <point x="817" y="1800" type="line"/>
      <point x="1578" y="1800" type="line"/>
      <point x="1578" y="1550" type="line"/>
      <point x="1191" y="1550" type="line"/>
      <point x="1191" y="1060" type="line"/>
      <point x="1465" y="1060" type="line"/>
      <point x="1465" y="804" type="line"/>
      <point x="1191" y="804" type="line"/>
      <point x="1191" y="250" type="line"/>
      <point x="1578" y="250" type="line"/>
      <point x="1578" y="0" type="line"/>
      <point x="854" y="0" type="line"/>
      <point x="854" y="385" type="line"/>
      <point x="570" y="385" type="line"/>
      <point x="428" y="0" type="line"/>
    </contour>
  </outline>
</glyph>
<glyph name="Thorn" format="1">
  <advance width="1020"/>
  <unicode hex="00DE"/>
  <outline>
    <contour>
      <point x="481" y="791" type="line"/>
      <point x="640" y="791"/>
      <point x="636" y="878"/>
      <point x="636" y="1061" type="curve" smooth="yes"/>
      <point x="636" y="1203"/>
      <point x="635" y="1305"/>
      <point x="481" y="1305" type="curve"/>
    </contour>
    <contour>
      <point x="97" y="0" type="line"/>
      <point x="97" y="1800" type="line"/>
      <point x="480" y="1800" type="line"/>
      <point x="480" y="1564" type="line"/>
      <point x="532" y="1564" type="line" smooth="yes"/>
      <point x="856" y="1564"/>
      <point x="981" y="1372"/>
      <point x="981" y="1054" type="curve" smooth="yes"/>
      <point x="981" y="647"/>
      <point x="790" y="539"/>
      <point x="475" y="534" type="curve"/>
      <point x="475" y="0" type="line"/>
    </contour>
  </outline>
</glyph>
<glyph name="dcroat" format="1">
  <advance width="999"/>
  <unicode hex="0111"/>
  <outline>
    <contour>
      <point x="567" y="297" type="curve"/>
      <point x="567" y="1005" type="line"/>
      <point x="548" y="1030"/>
      <point x="511" y="1080"/>
      <point x="472" y="1080" type="curve" smooth="yes"/>
      <point x="421" y="1080"/>
      <point x="416" y="1033"/>
      <point x="416" y="994" type="curve" smooth="yes"/>
      <point x="416" y="319" type="line" smooth="yes"/>
      <point x="416" y="277"/>
      <point x="420" y="225"/>
      <point x="472" y="225" type="curve" smooth="yes"/>
      <point x="512" y="225"/>
      <point x="549" y="272"/>
    </contour>
    <contour>
      <point x="79" y="250" type="curve" smooth="yes"/>
      <point x="79" y="1021" type="line" smooth="yes"/>
      <point x="79" y="1181"/>
      <point x="193" y="1335"/>
      <point x="350" y="1335" type="curve" smooth="yes"/>
      <point x="438" y="1335"/>
      <point x="516" y="1283"/>
      <point x="567" y="1217" type="curve"/>
      <point x="567" y="1504" type="line"/>
      <point x="284" y="1504" type="line"/>
      <point x="284" y="1637" type="line"/>
      <point x="567" y="1637" type="line"/>
      <point x="567" y="1800" type="line"/>
      <point x="904" y="1800" type="line"/>
      <point x="904" y="1637" type="line"/>
      <point x="999" y="1637" type="line"/>
      <point x="999" y="1504" type="line"/>
      <point x="904" y="1504" type="line"/>
      <point x="904" y="0" type="line"/>
      <point x="567" y="0" type="line"/>
      <point x="567" y="98" type="line"/>
      <point x="514" y="20"/>
      <point x="431" y="-29"/>
      <point x="340" y="-29" type="curve" smooth="yes"/>
      <point x="189" y="-29"/>
      <point x="79" y="105"/>
    </contour>
  </outline>
</glyph>
<glyph name="gcommaaccent" format="1">
  <advance width="965"/>
  <unicode hex="0123"/>
  <outline>
    <component base="g"/>
    <contour>
      <point x="574" y="1980" type="curve"/>
      <point x="614" y="1814" type="line"/>
      <point x="542" y="1814"/>
      <point x="534" y="1821"/>
      <point x="533" y="1737" type="curve"/>
      <point x="643" y="1737" type="line"/>
      <point x="643" y="1419" type="line"/>
      <point x="320" y="1419" type="line"/>
      <point x="316" y="1766"/>
      <point x="301" y="1980"/>
    </contour>
  </outline>
</glyph>
<glyph name="OE" format="1">
  <advance width="1555"/>
  <unicode hex="0152"/>
  <outline>
    <contour>
      <point x="610" y="253" type="curve" smooth="yes"/>
      <point x="773" y="253" type="line"/>
      <point x="773" y="1537" type="line"/>
      <point x="610" y="1537" type="line" smooth="yes"/>
      <point x="472" y="1537"/>
      <point x="448" y="1384"/>
      <point x="448" y="1271" type="curve" smooth="yes"/>
      <point x="448" y="518" type="line" smooth="yes"/>
      <point x="448" y="404"/>
      <point x="471" y="253"/>
    </contour>
    <contour>
      <point x="84" y="609" type="curve" smooth="yes"/>
      <point x="84" y="1180" type="line" smooth="yes"/>
      <point x="84" y="1520"/>
      <point x="209" y="1798"/>
      <point x="610" y="1799" type="curve"/>
      <point x="1524" y="1799" type="line"/>
      <point x="1524" y="1550" type="line"/>
      <point x="1137" y="1550" type="line"/>
      <point x="1137" y="1060" type="line"/>
      <point x="1411" y="1060" type="line"/>
      <point x="1411" y="804" type="line"/>
      <point x="1137" y="804" type="line"/>
      <point x="1137" y="250" type="line"/>
      <point x="1524" y="250" type="line"/>
      <point x="1524" y="0" type="line"/>
      <point x="610" y="0" type="line" smooth="yes"/>
      <point x="213" y="0"/>
      <point x="84" y="256"/>
    </contour>
  </outline>
</glyph>
<glyph name="caron" format="1">
  <advance width="859"/>
  <unicode hex="02C7"/>
  <outline>
    <contour>
      <point x="281" y="1385" type="line"/>
      <point x="80" y="1791" type="line"/>
      <point x="354" y="1791" type="line"/>
      <point x="427" y="1590" type="line"/>
      <point x="502" y="1791" type="line"/>
      <point x="777" y="1791" type="line"/>
      <point x="571" y="1385" type="line"/>
    </contour>
  </outline>
</glyph>
<glyph name="uni0326" format="1">
  <advance width="506"/>
  <unicode hex="0326"/>
  <outline>
    <contour>
      <point x="153" y="-639" type="curve"/>
      <point x="113" y="-473" type="line"/>
      <point x="185" y="-473"/>
      <point x="193" y="-480"/>
      <point x="194" y="-396" type="curve"/>
      <point x="84" y="-396" type="line"/>
      <point x="84" y="-78" type="line"/>
      <point x="407" y="-78" type="line"/>
      <point x="407" y="-405"/>
      <point x="444" y="-643"/>
      <point x="197" y="-643" type="curve" smooth="yes"/>
      <point x="183" y="-643"/>
      <point x="167" y="-641"/>
    </contour>
  </outline>
</glyph>
<glyph name="dagger" format="1">
  <advance width="798"/>
  <unicode hex="2020"/>
  <outline>
    <contour>
      <point x="271" y="0" type="line"/>
      <point x="271" y="944" type="line"/>
      <point x="79" y="944" type="line"/>
      <point x="79" y="1200" type="line"/>
      <point x="271" y="1200" type="line"/>
      <point x="271" y="1536" type="line"/>
      <point x="527" y="1536" type="line"/>
      <point x="527" y="1200" type="line"/>
      <point x="719" y="1200" type="line"/>
      <point x="719" y="944" type="line"/>
      <point x="527" y="944" type="line"/>
      <point x="527" y="0" type="line"/>
    </contour>
  </outline>
</glyph>
<glyph name="uni2074" format="1">
  <advance width="829"/>
  <unicode hex="2074"/>
  <outline>
    <contour>
      <point x="302" y="1000" type="line"/>
      <point x="395" y="1000" type="line"/>
      <point x="395" y="1184" type="line"/>
    </contour>
    <contour>
      <point x="71" y="842" type="line"/>
      <point x="71" y="990" type="line"/>
      <point x="422" y="1583" type="line"/>
      <point x="617" y="1583" type="line"/>
      <point x="617" y="1000" type="line"/>
      <point x="747" y="1000" type="line"/>
      <point x="747" y="842" type="line"/>
      <point x="617" y="842" type="line"/>
      <point x="617" y="583" type="line"/>
      <point x="395" y="583" type="line"/>
      <point x="395" y="842" type="line"/>
    </contour>
  </outline>
</glyph>
<glyph name="product" format="1">
  <advance width="1246"/>
  <unicode hex="220F"/>
  <outline>
    <contour>
      <point x="143" y="0" type="line"/>
      <point x="143" y="1792" type="line"/>
      <point x="1103" y="1792" type="line"/>
      <point x="1103" y="0" type="line"/>
      <point x="847" y="0" type="line"/>
      <point x="847" y="1600" type="line"/>
      <point x="399" y="1600" type="line"/>
      <point x="399" y="0" type="line"/>
    </contour>
  </outline>
</glyph>
